<svg width="1132.9900390625px" height="344.0199951171875px" xmlns="http://www.w3.org/2000/svg" viewBox="-316.49501953125 -97.00999755859374 1132.9900390625 344.0199951171875" style="background: rgb(253, 253, 253);" preserveAspectRatio="xMidYMid"><defs><filter id="editing-hole" x="-100%" y="-100%" width="300%" height="300%"><feFlood flood-color="#bbcedd" result="black"></feFlood><feMorphology operator="dilate" radius="2" in="SourceGraphic" result="erode"></feMorphology><feGaussianBlur in="erode" stdDeviation="4" result="blur"></feGaussianBlur><feOffset in="blur" dx="2" dy="2" result="offset"></feOffset><feComposite operator="atop" in="offset" in2="black" result="merge"></feComposite><feComposite operator="in" in="merge" in2="SourceGraphic" result="inner-shadow"></feComposite></filter></defs><g filter="url(#editing-hole)"><g transform="translate(-160.39999389648438, 144.4000015258789)"><path d="M78.80-113.20L78.80-113.20L78.80-113.20Q69.20-118.80 56-118.80L56-118.80L56-118.80Q42.80-118.80 34.60-112L34.60-112L34.60-112Q34.40-109.20 34.40-106.60L34.40-106.60L34.40-106.60Q34.40-74.60 68.60-74.60L68.60-74.60L67.60-67.20L65.20-67.20L65.20-67.20Q49.40-67.20 39.10-60.90L39.10-60.90L39.10-60.90Q28.80-54.60 28.80-40.60L28.80-40.60L28.80-40.60Q28.80-26.60 38.40-18.90L38.40-18.90L38.40-18.90Q48-11.20 61-11.20L61-11.20L61-11.20Q74-11.20 81.40-16L81.40-16L81.40-16Q82.80-18.80 82.80-24.80L82.80-24.80L82.80-24.80Q82.80-30.80 80.80-33L80.80-33L81-34.40L81-34.40Q86-37.40 91-42.80L91-42.80L91-42.80Q93.40-42.60 94.90-40.80L94.90-40.80L94.90-40.80Q96.40-39 96.40-36.60L96.40-36.60L96.40-36.60Q96.40-24.40 84.90-12.90L84.90-12.90L84.90-12.90Q73.40-1.40 59.80 3L59.80 3L59.80 3Q38.40 3 24.20-7.40L24.20-7.40L24.20-7.40Q10-17.80 10-37L10-37L10-37Q10-50.80 21.60-60L21.60-60L21.60-60Q33.20-69.20 48-69.20L48-69.20L48-70L48-70Q34.40-70.80 25.30-77.60L25.30-77.60L25.30-77.60Q16.20-84.40 16.20-96.40L16.20-96.40L16.20-96.40Q23.40-109.20 35.30-119.40L35.30-119.40L35.30-119.40Q47.20-129.60 60.80-133.20L60.80-133.20L60.80-133.20Q75-133.20 88.80-129.40L88.80-129.40L88.80-129.40Q92-131 97-135.60L97-135.60L101.20-132.80L101.20-132.80Q88-116.80 85-94.60L85-94.60L79.80-94.60L79.80-94.60Q79.80-105.60 78.80-113.20ZM169.40-102.40L169.40-102.40L169.40-102.40Q178.20-102.40 184.80-108.40L184.80-108.40L189-105.20L189-105.20Q183.40-100.20 176.20-87.80L176.20-87.80L132.80-12.80L133.40-12.40L157.40-12.40L157.40-12.40Q166.40-12.40 170.40-15.40L170.40-15.40L170.40-15.40Q171.40-22 171.40-29.20L171.40-29.20L176.60-29.20L176.60-29.20Q177.80-11 189 0.40L189 0.40L185 3.20L185 3.20Q184.20 2 181.80 0.40L181.80 0.40L181.80 0.40Q159-3.40 126.60-3.40L126.60-3.40L126.60-3.40Q113.20-3.40 107.60 3.20L107.60 3.20L103.40-0.20L103.40-0.20Q112.40-9.20 118.20-18.80L118.20-18.80L163.60-92.80L163.20-93.20L141.60-93.20L141.60-93.20Q131.80-93.20 124.80-90.20L124.80-90.20L124.80-90.20Q123.60-83.20 120.80-76.80L120.80-76.80L116.00-77.40L116.00-77.40Q116.40-83.40 116.40-88.40L116.40-88.40L116.40-88.40Q116.40-93.40 114.80-99.60L114.80-99.60L114.80-99.60Q111.60-101.40 108.00-102.20L108.00-102.20L108.40-106.60L108.40-106.60Q111.80-106.60 133.90-104.50L133.90-104.50L133.90-104.50Q156-102.40 169.40-102.40ZM251.00-6L251.00-11.20L251.00-11.20Q251.00-23.60 244.80-48.30L244.80-48.30L244.80-48.30Q238.60-73 231.00-96.20L231.00-96.20L230.20-96L225.20-58.80L225.20-58.80Q222.00-35.80 222.00-17.40L222.00-17.40L222.00-17.40Q222.00-6.20 229.00-2.40L229.00-2.40L228.20 1L228.20 1Q222.20 0 212.50 0L212.50 0L212.50 0Q202.80 0 191.20 1.60L191.20 1.60L190.40-3.60L190.40-3.60Q197.20-5.80 203.20-6.80L203.20-6.80L221.80-98L221.80-98Q211.40-99.80 206.40-101.20L206.40-101.20L207.00-106.40L207.00-106.40Q221.40-104.20 233.70-104.20L233.70-104.20L233.70-104.20Q246.00-104.20 252.80-105.60L252.80-105.60L253.20-102.20L253.20-102.20Q247.80-100.80 247.80-97.60L247.80-97.60L247.80-97.60Q247.80-93.20 260.20-46.80L260.20-46.80L264.60-31.80L266-32.20L266-32.20Q266-37.40 284.20-97.40L284.20-97.40L284.20-97.40Q284.20-100.80 278.80-102.20L278.80-102.20L279.20-105.60L279.20-105.60Q286-104.20 298.50-104.20L298.50-104.20L298.50-104.20Q311-104.20 325.20-106.40L325.20-106.40L325.80-101.20L325.80-101.20Q320.40-99.80 312-98.20L312-98.20L312-98.20Q311.40-93.40 311.40-84.10L311.40-84.10L311.40-84.10Q311.40-74.80 314-46L314-46L314-46Q316.60-17.20 318.80-6.40L318.80-6.40L318.80-6.40Q326.20-5.40 334-3.60L334-3.60L333.40 1.40L333.40 1.40Q323 0 310.30 0L310.30 0L310.30 0Q297.60 0 287.40 1.60L287.40 1.60L286.60-3.60L286.60-3.60Q293.20-5.60 300.80-6.60L300.80-6.60L300.80-6.60Q300.20-53.80 294.40-95.60L294.40-95.60L293.80-95.60L293.80-95.60Q273.20-34.80 271.80-16.80L271.80-16.80L271.80-16.80Q267.60-15.40 262-11.70L262-11.70L262-11.70Q256.40-8 253.40-4.40L253.40-4.40L251.00-6ZM388.00 2.40L388.00 2.40Q368.20 2.40 356.00-10.10L356.00-10.10L356.00-10.10Q343.80-22.60 343.80-43.60L343.80-43.60L343.80-43.60Q343.80-64.60 356.60-83L356.60-83L356.60-83Q369.40-101.40 390.00-106.60L390.00-106.60L390.00-106.60Q410.60-106.60 421.40-94.90L421.40-94.90L421.40-94.90Q432.20-83.20 432.20-61.60L432.20-61.60L432.20-61.60Q432.20-40 420.50-22.60L420.50-22.60L420.50-22.60Q408.80-5.20 388.00 2.40L388.00 2.40ZM384.60-94.40L384.60-94.40L384.60-94.40Q375.60-94.40 369.00-89.40L369.00-89.40L369.00-89.40Q360.80-75.40 360.80-54.20L360.80-54.20L360.80-54.20Q360.80-29.80 374.40-16.80L374.40-16.80L374.40-16.80Q381.60-9.80 391.40-9.80L391.40-9.80L391.40-9.80Q401.20-9.80 407.20-15L407.20-15L407.20-15Q415.20-29 415.20-49.20L415.20-49.20L415.20-49.20Q415.20-69.40 408.00-81.90L408.00-81.90L408.00-81.90Q400.80-94.40 384.60-94.40ZM514.60-93.40L514.60-93.40L514.60-93.40Q507.60-96.80 501.20-96.80L501.20-96.80L501.20-96.80Q494.80-96.80 492.60-96L492.60-96L492.60-96Q491-85.20 491-54.20L491-54.20L491-54.20Q491-23.20 493.20-6.60L493.20-6.60L493.20-6.60Q502.20-5.60 509.80-3.60L509.80-3.60L509.20 1.40L509.20 1.40Q498.80 0 485.30 0L485.30 0L485.30 0Q471.80 0 461.60 1.60L461.60 1.60L460.80-3.60L460.80-3.60Q464.80-4.80 474.60-6.60L474.60-6.60L474.60-6.60Q476.40-21 476.40-47.40L476.40-47.40L476.40-56.80L476.40-56.80Q476.40-70.80 474.20-96L474.20-96L474.20-96Q472-96.80 466-96.80L466-96.80L466-96.80Q460-96.80 453.20-94L453.20-94L453.20-94Q451.20-87.80 450.40-77.40L450.40-77.40L445.20-77.40L445.20-77.40Q445.20-93.80 439.80-102.80L439.80-102.80L440.80-106.20L440.80-106.20Q456.20-104.20 484-104.20L484-104.20L484-104.20Q511.80-104.20 528.80-106.40L528.80-106.40L530-102.60L530-102.60Q525-97 523.20-91.70L523.20-91.70L523.20-91.70Q521.40-86.40 521-77.40L521-77.40L516-77.40L516-77.40Q514.60-84 514.60-93.40ZM566.80-97.60L566.80-97.60L566.80-97.60Q565.20-86.80 565.20-53.40L565.20-53.40L565.20-53.40Q565.20-20 567.00-6.60L567.00-6.60L567.00-6.60Q576.00-5.60 583.60-3.60L583.60-3.60L583.00 1.40L583.00 1.40Q572.60 0 559.70 0L559.70 0L559.70 0Q546.80 0 536.60 1.60L536.60 1.60L535.80-3.60L535.80-3.60Q541.40-5.40 548.40-6.60L548.40-6.60L548.40-6.60Q550.20-21 550.20-47.40L550.20-47.40L550.20-56.80L550.20-56.80Q550.20-83.20 548.20-97.60L548.20-97.60L548.20-97.60Q541.20-98.80 535.60-100.60L535.60-100.60L536.40-105.80L536.40-105.80Q546.60-104.20 559.50-104.20L559.50-104.20L559.50-104.20Q572.40-104.20 582.80-105.60L582.80-105.60L583.40-100.60L583.40-100.60Q575.80-98.60 566.80-97.60ZM641.20 2.40L641.20 2.40Q621.40 2.40 609.20-10.10L609.20-10.10L609.20-10.10Q597-22.60 597-43.60L597-43.60L597-43.60Q597-64.60 609.80-83L609.80-83L609.80-83Q622.60-101.40 643.20-106.60L643.20-106.60L643.20-106.60Q663.80-106.60 674.60-94.90L674.60-94.90L674.60-94.90Q685.40-83.20 685.40-61.60L685.40-61.60L685.40-61.60Q685.40-40 673.70-22.60L673.70-22.60L673.70-22.60Q662-5.20 641.20 2.40L641.20 2.40ZM637.80-94.40L637.80-94.40L637.80-94.40Q628.80-94.40 622.20-89.40L622.20-89.40L622.20-89.40Q614-75.40 614-54.20L614-54.20L614-54.20Q614-29.80 627.60-16.80L627.60-16.80L627.60-16.80Q634.80-9.80 644.60-9.80L644.60-9.80L644.60-9.80Q654.40-9.80 660.40-15L660.40-15L660.40-15Q668.40-29 668.40-49.20L668.40-49.20L668.40-49.20Q668.40-69.40 661.20-81.90L661.20-81.90L661.20-81.90Q654-94.40 637.80-94.40ZM751.20-3.60L750.60 1.40L750.60 1.40Q740.20 0 727.30 0L727.30 0L727.30 0Q714.40 0 704.20 1.60L704.20 1.60L703.40-3.60L703.40-3.60Q709.80-5.60 715.40-6.60L715.40-6.60L715.40-6.60Q717.20-22.20 717.20-47.40L717.20-47.40L717.20-56.80L717.20-56.80Q717.20-83.60 715.20-98L715.20-98L715.20-98Q709.80-98.60 702.20-101.20L702.20-101.20L702.80-106.40L702.80-106.40Q714.20-104.20 726.70-104.20L726.70-104.20L726.70-104.20Q739.20-104.20 744.60-105.60L744.60-105.60L745.00-102.20L745.00-102.20Q739.60-100.80 739.60-97.60L739.60-97.60L739.60-97.60Q739.60-95.20 744.30-87.50L744.30-87.50L744.30-87.50Q749.00-79.80 753.40-72.60L753.40-72.60L753.40-72.60Q766.60-51.60 784.60-21L784.60-21L785.20-21.40L785.20-45.80L785.20-45.80Q785.20-72.60 782.40-86.10L782.40-86.10L782.40-86.10Q779.60-99.60 772.80-101.80L772.80-101.80L773.20-105.20L773.20-105.20Q778.40-104.20 788.80-104.20L788.80-104.20L788.80-104.20Q799.20-104.20 810.20-106.40L810.20-106.40L810.80-101.20L810.80-101.20Q802.60-98.60 797.00-98L797.00-98L797.00-98Q795.00-82 795.00-56.80L795.00-56.80L795.00-47.40L795.00-47.40Q795.00-17 797.00-6.20L797.00-6.20L797.00-6.20Q805.40-4.80 810.40-3L810.40-3L809.80 2.20L809.80 2.20Q799.80 0 791.00 0L791.00 0L791.00 0Q782.20 0 777.40 0.80L777.40 0.80L777.40 0.80Q777.40-3.60 771.30-14L771.30-14L771.30-14Q765.20-24.40 760.20-32.40L760.20-32.40L760.20-32.40Q744.00-58.60 728.40-85.60L728.40-85.60L727.60-85.20L727.60-58.40L727.60-58.40Q727.60-18.60 733.60-6.60L733.60-6.60L733.60-6.60Q742.60-5.60 751.20-3.60L751.20-3.60Z" fill="#85a2b6"></path></g></g><style>text {
  font-size: 64px;
  font-family: Arial Black;
  dominant-baseline: central;
  text-anchor: middle;
}</style></svg>